<?xml version="1.0" standalone="no"?><!DOCTYPE svg PUBLIC "-//W3C//DTD SVG 1.1//EN" "http://www.w3.org/Graphics/SVG/1.1/DTD/svg11.dtd"><svg t="1589010959498" class="icon" viewBox="0 0 1024 1024" version="1.1" xmlns="http://www.w3.org/2000/svg" p-id="909" width="200" height="200" xmlns:xlink="http://www.w3.org/1999/xlink"><defs><style type="text/css"></style></defs><path d="M371.59472656 280.62792969h510.20507813a23.73046875 23.73046875 0 1 0 0-47.4609375h-510.20507813a23.73046875 23.73046875 0 1 0 0 47.4609375zM142.20019531 280.62792969H211.4140625v63.28125h87.01171875v-174.0234375H211.4140625v63.28125H142.20019531a23.73046875 23.73046875 0 1 0 0 47.4609375zM881.79980469 488.26953125H626.69726563a23.73046875 23.73046875 0 1 0-1e-8 47.4609375h255.10253907a23.73046875 23.73046875 0 1 0 0-47.4609375zM142.20019531 535.73046875H468.49414062v63.28125h87.01171876V424.98828125h-87.01171875v63.28125H142.20019531a23.73046875 23.73046875 0 1 0 0 47.4609375zM881.79980469 753.25976563H844.2265625a23.73046875 23.73046875 0 1 0 0 47.4609375h37.57324219a23.73046875 23.73046875 0 1 0 0-47.46093751zM699.86621094 753.25976563H142.20019531a23.73046875 23.73046875 0 1 0 0 47.4609375h557.66601563v63.28124999h87.01171875v-174.02343749h-87.01171875v63.28124999z" fill="#ffffff" p-id="910"></path></svg>