<?xml version="1.0" standalone="no"?><!DOCTYPE svg PUBLIC "-//W3C//DTD SVG 1.1//EN" "http://www.w3.org/Graphics/SVG/1.1/DTD/svg11.dtd"><svg t="1589011138948" class="icon" viewBox="0 0 1024 1024" version="1.1" xmlns="http://www.w3.org/2000/svg" p-id="1173" xmlns:xlink="http://www.w3.org/1999/xlink" width="200" height="200"><defs><style type="text/css"></style></defs><path d="M816.27734375 735.50585938V604.02148438c-19.42382813 16.96289063-41.30859375 30.9375-64.77539063 41.48437499-76.02539063 33.3984375-158.203125 50.2734375-241.25976562 49.48242188-107.2265625 6.24023438-213.3984375-23.73046875-301.55273438-84.99023438v132.45117188C214.66601562 800.28125 342.1953125 863.5625 512.26367188 863.5625c170.06835938 0 296.63085938-63.80859375 304.01367187-122.08007813v-5.97656249z" p-id="1174" fill="#ffffff"></path><path d="M816.27734375 507.60546875v-2.4609375 5.9765625c-7.3828125 58.359375-133.9453125 122.08007813-304.01367188 122.08007813-170.06835938 0-297.59765625-63.28125-303.57421874-121.11328126V379.54882812C296.84375 440.89648437 403.015625 470.77929687 510.2421875 464.5390625c83.05664063 0.79101563 165.234375-15.99609375 241.25976563-49.48242188 23.46679688-10.63476563 45.3515625-24.609375 64.77539062-41.484375V507.60546875z" p-id="1175" fill="#ffffff"></path><path d="M732.25390625 203.06445312c50.44921875 22.23632813 80.59570313 53.87695313 80.59570313 82.08984376 0 27.68554688-31.11328125 58.359375-80.59570313 82.08984375-70.3125 29.8828125-146.07421875 44.56054688-222.45117188 42.97851562-173.05664063 0-302.08007813-65.7421875-302.08007812-124.54101563s129.55078125-125.06835938 303.046875-125.06835937c76.02539063-1.66992188 151.43554688 12.83203125 221.484375 42.45117188z" p-id="1176" fill="#ffffff"></path></svg>