<?xml version="1.0" standalone="no"?><!DOCTYPE svg PUBLIC "-//W3C//DTD SVG 1.1//EN" "http://www.w3.org/Graphics/SVG/1.1/DTD/svg11.dtd"><svg t="1589011183944" class="icon" viewBox="0 0 1024 1024" version="1.1" xmlns="http://www.w3.org/2000/svg" p-id="1351" xmlns:xlink="http://www.w3.org/1999/xlink" width="200" height="200"><defs><style type="text/css"></style></defs><path d="M925.39053344 661.42367554c5.6565857 5.6565857 8.48446656 12.25579834 8.48446656 19.79763794v169.69262694c0 8.17053223-2.82788086 14.92630005-8.48446656 20.26895143-5.6565857 5.34182739-12.56973266 8.01315307-20.74026488 8.01315307H734.95764161c-7.5418396 0-14.14105224-2.67132568-19.79763794-8.01315307-5.6565857-5.34182739-8.48446656-12.09841919-8.48446656-20.26895143V681.22131347c0-5.02789307 1.25738526-9.7418518 3.77133179-14.14105224s5.97052002-7.85577393 10.37054443-10.37054443 9.11315918-3.77133179 14.14105224-3.77133179h64.10604859V540.75341797c0-3.77133179-0.94262695-7.22790528-2.82788086-10.37054443s-4.39920044-5.6565857-7.5418396-7.54183961-6.59921265-2.82788086-10.36972045-2.82788086H537.92553711v132.92605591h64.10604859c7.5418396 0 14.14105224 2.82788086 19.79763794 8.48446656s8.48446656 12.25579834 8.48446654 19.79763793v169.69262696c0 5.02789307-1.25738526 9.7418518-3.77133178 14.14105225s-5.97052002 7.85577393-10.36972046 10.36972045-9.11315918 3.77133179-14.14105224 3.77133179H432.33895874c-5.02789307 0-9.7418518-1.25738526-14.14105225-3.77133179s-8.01315307-5.97052002-10.8418579-10.36972045-4.24264526-9.11315918-4.24264526-14.14105226V681.22131347c0-7.5418396 2.82788086-14.14105224 8.48446654-19.79763793s12.56973266-8.48446656 20.7402649-8.48446656h63.16342163V520.01315307H245.67657471c-6.28527832 0-11.46972656 2.04263305-15.55499268 6.12789917s-6.12789917 8.95578003-6.12789917 14.61236573v112.18579101h64.10604858c8.17053223 0 14.92630005 2.82788086 20.26895142 8.48446656s8.01315307 12.25579834 8.01315308 19.79763793v169.69262695c0 8.17053223-2.67132568 14.92630005-8.01315308 20.26895143-5.34182739 5.34182739-12.09841919 8.01315307-20.26895142 8.01315307H118.40710449c-3.14263916 0-6.12789917-0.47131347-8.95578003-1.41394043-2.82788086-0.94262695-5.34182739-2.20001221-7.54183959-3.77133178-2.20001221-1.57131958-4.24264526-3.61395263-6.12789917-6.12789917-1.88525391-2.51394653-3.29919434-5.18527222-4.24264527-8.01315308C90.59631347 857.0418396 90.125 854.05657959 90.125 850.91394043V681.22131347c0-2.51394653 0.31393432-5.02789307 0.94262695-7.54183959s1.57131958-4.71395874 2.82788086-6.59921265 2.82788086-3.77133179 4.71395875-5.65658569 3.77133179-3.45657349 5.65658568-4.71395874 4.08526612-2.20001221 6.59921265-2.82788086 5.02789307-0.94262695 7.5418396-0.94262696h64.10604858V498.33026123c0-5.6565857 2.04263305-10.52709961 6.12789917-14.61236572s8.95578003-6.12789917 14.61236573-6.12789918h292.2489624V372.00341797h-63.16342163c-8.17053223 0-15.0836792-2.82788086-20.74026489-8.48446656s-8.48446656-12.25579834-8.48446656-19.79763793V174.02868653c0-8.17053223 2.82788086-15.0836792 8.48446656-20.7402649s12.56973266-8.48446656 20.74026489-8.48446655h169.69262696c5.02789307 0 9.7418518 1.41394042 14.14105224 4.24264526 4.39920044 2.82788086 7.85577393 6.44183349 10.36972045 10.84185791 2.51394653 4.39920044 3.77133179 9.11315918 3.77133179 14.14105225v169.69262695c0 7.5418396-2.82788086 14.14105224-8.48446655 19.79763794s-12.25579834 8.48446656-19.79763793 8.48446656h-64.10604859V477.59082031H819.80395508c6.28527832 0 11.46972656 2.04263305 15.55499268 6.12789917s6.12789917 8.95578003 6.12789917 14.61236573v154.60894775h63.16342163c8.17053223-0.00082398 15.0836792 2.82705688 20.74026488 8.48364258z" p-id="1352" fill="#ffffff"></path></svg>